<svg width="216" height="72" viewBox="0 0 216 72" fill="none" xmlns="http://www.w3.org/2000/svg">
<path d="M13.7405 31.8692C14.2855 30.7258 15.1481 29.7178 16.2987 28.9913C17.4492 28.2663 18.7301 27.9229 19.9973 27.9229H27.2398L21.1831 41.5575C20.9203 42.1493 20.9535 42.8585 21.3329 43.4417C21.7116 44.0242 22.3459 44.3417 22.9932 44.3417H36.5847L32.7643 51.4366C32.2719 52.351 31.5367 53.1495 30.5799 53.7204C29.6237 54.2914 28.5718 54.5614 27.5335 54.5614H2.91602L13.7405 31.8692Z" fill="#ED1C24"/>
<path d="M5.36182 14.9817H39.1327C73.1369 14.8658 67.5468 56.3219 35.6385 54.5608C42.6549 42.2898 49.7873 24.7636 35.7552 25.1128H13.9788C9.26206 24.3107 6.24526 21.1348 5.36182 14.9817Z" fill="#ED1C24"/>
<path d="M71.5515 27.0352C71.5515 25.7781 72.4256 24.9307 73.6553 24.9307H78.1906C84.3106 24.9307 87.8077 28.8655 87.8077 34.9307C87.8077 40.6684 84.0917 44.3836 78.4635 44.3836H73.7093C72.8079 44.3836 71.5508 43.8926 71.5508 42.3345V27.0352H71.5515ZM75.6497 40.6137H78.4095C81.9339 40.6137 83.546 38.0181 83.546 34.7392C83.546 31.2422 81.9065 28.7006 78.1359 28.7006H75.649V40.6137H75.6497Z" fill="white"/>
<path d="M89.4048 26.8983C89.4048 25.5325 90.2789 24.7671 91.4539 24.7671C92.6282 24.7671 93.503 25.5325 93.503 26.8983V42.4164C93.503 43.7816 92.6289 44.5484 91.4539 44.5484C90.2789 44.5484 89.4048 43.7823 89.4048 42.4164V26.8983Z" fill="white"/>
<path d="M111.467 32.8542C113.187 32.8542 113.871 33.7283 113.871 35.4779C113.871 40.7505 110.428 44.7134 104.963 44.7134C99.4167 44.7134 95.564 40.3134 95.564 34.6578C95.564 28.9756 99.3893 24.6038 104.963 24.6038C109.088 24.6038 112.477 26.5434 112.477 28.4565C112.477 29.6315 111.739 30.3688 110.783 30.3688C108.925 30.3688 108.543 28.3744 104.963 28.3744C101.548 28.3744 99.8271 31.3523 99.8271 34.6578C99.8271 37.9914 101.493 40.942 104.963 40.942C107.121 40.942 109.608 39.7396 109.608 36.6249H106.821C105.702 36.6249 104.909 35.8329 104.909 34.7133C104.909 33.5649 105.783 32.855 106.821 32.855H111.467V32.8542Z" fill="white"/>
<path d="M115.563 26.8983C115.563 25.5325 116.438 24.7671 117.613 24.7671C118.787 24.7671 119.662 25.5325 119.662 26.8983V42.4164C119.662 43.7816 118.787 44.5484 117.613 44.5484C116.438 44.5484 115.563 43.7823 115.563 42.4164V26.8983Z" fill="white"/>
<path d="M125.768 28.7013H122.79C121.479 28.7013 120.932 27.7459 120.932 26.8171C120.932 25.8609 121.615 24.9314 122.79 24.9314H132.845C134.02 24.9314 134.703 25.8609 134.703 26.8171C134.703 27.7459 134.156 28.7013 132.845 28.7013H129.866V42.4166C129.866 43.7817 128.992 44.5485 127.817 44.5485C126.642 44.5485 125.768 43.7824 125.768 42.4166V28.7013H125.768Z" fill="white"/>
<path d="M137.598 26.871C138.062 25.6146 139.127 24.6038 140.521 24.6038C141.969 24.6038 142.981 25.5599 143.445 26.871L148.8 41.7347C148.965 42.1718 149.019 42.5548 149.019 42.7442C149.019 43.8098 148.145 44.5485 147.134 44.5485C145.987 44.5485 145.413 43.9466 145.139 43.1265L144.32 40.559H136.724L135.904 43.0998C135.63 43.9466 135.057 44.5485 133.937 44.5485C132.844 44.5485 131.915 43.7284 131.915 42.6362C131.915 42.1991 132.051 41.8708 132.106 41.7347L137.598 26.871ZM137.898 36.789H143.089L140.549 28.8662H140.494L137.898 36.789Z" fill="white"/>
<path d="M150.301 26.8983C150.301 25.5325 151.176 24.7671 152.351 24.7671C153.525 24.7671 154.4 25.5325 154.4 26.8983V40.6136H159.263C160.657 40.6136 161.284 41.6511 161.23 42.5806C161.202 43.482 160.464 44.3835 159.263 44.3835H152.433C151.094 44.3835 150.301 43.5101 150.301 42.1436V26.8983H150.301Z" fill="white"/>
<path d="M168.89 26.8983C168.89 25.5325 169.764 24.7671 170.939 24.7671C172.115 24.7671 172.989 25.5325 172.989 26.8983V40.6136H177.852C179.246 40.6136 179.874 41.6511 179.819 42.5806C179.792 43.482 179.054 44.3835 177.852 44.3835H171.022C169.684 44.3835 168.89 43.5101 168.89 42.1436V26.8983H168.89Z" fill="white"/>
<path d="M186.145 26.871C186.609 25.6146 187.675 24.6038 189.068 24.6038C190.517 24.6038 191.528 25.5599 191.992 26.871L197.348 41.7347C197.511 42.1718 197.566 42.5548 197.566 42.7442C197.566 43.8098 196.692 44.5485 195.681 44.5485C194.533 44.5485 193.959 43.9466 193.686 43.1265L192.866 40.559H185.27L184.451 43.0998C184.177 43.9466 183.603 44.5485 182.484 44.5485C181.39 44.5485 180.461 43.7284 180.461 42.6362C180.461 42.1991 180.598 41.8708 180.653 41.7347L186.145 26.871ZM186.445 36.789H191.637L189.096 28.8662H189.042L186.445 36.789Z" fill="white"/>
<path d="M198.109 26.9798C198.109 25.6687 199.01 24.9307 200.267 24.9307H205.513C208.354 24.9307 210.65 26.843 210.65 29.7395C210.65 31.6519 209.857 32.9363 208.109 33.7557V33.8104C210.432 34.138 212.263 36.0777 212.263 38.4551C212.263 42.3086 209.694 44.3836 205.924 44.3836H200.296C199.039 44.3836 198.11 43.5916 198.11 42.3079V26.9798H198.109ZM202.208 32.6361H204.339C205.678 32.6361 206.552 31.8434 206.552 30.4775C206.552 29.1938 205.541 28.5379 204.339 28.5379H202.208V32.6361ZM202.208 40.7771H205.432C206.908 40.7771 208.001 39.9319 208.001 38.4004C208.001 37.1167 207.017 36.2419 205.104 36.2419H202.209V40.7771H202.208Z" fill="white"/>
<path d="M72.3804 51.1216C72.3804 50.5981 72.3602 50.1892 72.3394 49.7802H73.1285L73.1695 50.5888H73.2005C73.477 50.1179 73.9378 49.6772 74.7679 49.6772C75.4339 49.6772 75.9458 50.0862 76.1611 50.6716H76.1813C76.3346 50.3836 76.5406 50.1791 76.745 50.025C77.0424 49.7996 77.3599 49.678 77.8308 49.678C78.4975 49.678 79.4702 50.1085 79.4702 51.8293V54.7374H78.589V51.9416C78.589 50.9783 78.2304 50.416 77.5133 50.416C76.9906 50.416 76.6018 50.794 76.4376 51.2245C76.3966 51.357 76.3656 51.5111 76.3656 51.6745V54.7374H75.485V51.7674C75.485 50.9783 75.1373 50.416 74.4497 50.416C73.8967 50.416 73.477 50.866 73.3337 51.3174C73.2826 51.4398 73.2617 51.6025 73.2617 51.7573V54.7374H72.3804V51.1216Z" fill="#A7A9AC"/>
<path d="M88.5018 53.5501C88.5018 53.9792 88.522 54.3997 88.5738 54.7367H87.7645L87.6925 54.1124H87.6623C87.3858 54.502 86.853 54.8504 86.146 54.8504C85.1416 54.8504 84.6304 54.1434 84.6304 53.4256C84.6304 52.2275 85.6953 51.5723 87.6112 51.5816V51.4801C87.6112 51.0805 87.4981 50.3324 86.4844 50.3425C86.0128 50.3425 85.5318 50.4764 85.1833 50.7126L84.9781 50.1078C85.3878 49.8522 85.9926 49.6772 86.6169 49.6772C88.1332 49.6772 88.5018 50.7126 88.5018 51.6954V53.5501ZM87.6306 52.2088C86.6471 52.1879 85.5304 52.3607 85.5304 53.324C85.5304 53.9188 85.9199 54.1844 86.3706 54.1844C87.0265 54.1844 87.4463 53.7755 87.5896 53.355C87.6198 53.252 87.6306 53.1498 87.6306 53.0684V52.2088Z" fill="#A7A9AC"/>
<path d="M94.0518 51.3268C94.0518 50.7428 94.041 50.241 94.0107 49.7802H94.7999L94.8409 50.763H94.8719C95.0965 50.0963 95.6495 49.6772 96.2543 49.6772C96.3464 49.6772 96.4184 49.6873 96.5005 49.6981V50.5477C96.4083 50.5268 96.3162 50.5268 96.1931 50.5268C95.558 50.5268 95.1073 50.9992 94.9842 51.6745C94.964 51.7984 94.9539 51.9517 94.9539 52.095V54.7374H94.0525V51.3268H94.0518Z" fill="#A7A9AC"/>
<path d="M102.429 52.0539H102.45C102.573 51.8796 102.736 51.6644 102.88 51.4901L104.345 49.7801H105.421L103.516 51.8177L105.698 54.7373H104.591L102.89 52.3606L102.429 52.8739V54.7373H101.538V47.4639H102.429V52.0539Z" fill="#A7A9AC"/>
<path d="M110.941 52.4226C110.96 53.6416 111.729 54.1441 112.641 54.1441C113.286 54.1441 113.685 54.0318 114.013 53.8885L114.178 54.5337C113.86 54.6769 113.307 54.8512 112.518 54.8512C110.991 54.8512 110.08 53.8374 110.08 52.3413C110.08 50.8451 110.96 49.678 112.404 49.678C114.034 49.678 114.454 51.0913 114.454 52.0036C114.454 52.1879 114.443 52.3197 114.423 52.4226H110.941ZM113.583 51.7768C113.594 51.2145 113.348 50.3224 112.335 50.3224C111.412 50.3224 111.023 51.1518 110.951 51.7768H113.583Z" fill="#A7A9AC"/>
<path d="M120.752 48.5913V49.7793H122.042V50.4655H120.752V53.1388C120.752 53.7537 120.926 54.1022 121.427 54.1022C121.673 54.1022 121.817 54.0813 121.951 54.0403L121.992 54.7264C121.818 54.7883 121.541 54.8503 121.193 54.8503C120.773 54.8503 120.435 54.707 120.219 54.4708C119.973 54.1936 119.871 53.7537 119.871 53.1698V50.4655H119.103V49.7793H119.871V48.857L120.752 48.5913Z" fill="#A7A9AC"/>
<path d="M128.156 48.3863C128.156 48.6945 127.941 48.9393 127.583 48.9393C127.254 48.9393 127.039 48.6945 127.039 48.3863C127.039 48.0781 127.264 47.824 127.603 47.824C127.931 47.824 128.156 48.0688 128.156 48.3863ZM127.154 54.7367V49.7795H128.054V54.7367H127.154Z" fill="#A7A9AC"/>
<path d="M133.645 51.1216C133.645 50.5981 133.635 50.1892 133.604 49.7802H134.402L134.454 50.5989H134.474C134.721 50.1388 135.294 49.678 136.113 49.678C136.799 49.678 137.865 50.0869 137.865 51.789V54.7381H136.964V51.8805C136.964 51.082 136.667 50.4167 135.816 50.4167C135.232 50.4167 134.771 50.8357 134.607 51.3376C134.566 51.4499 134.546 51.6033 134.546 51.7581V54.7381H133.644V51.1216H133.645Z" fill="#A7A9AC"/>
<path d="M147.668 54.0102C147.668 55.1579 147.432 55.8455 146.961 56.284C146.469 56.7253 145.773 56.8787 145.148 56.8787C144.553 56.8787 143.898 56.7354 143.497 56.4697L143.723 55.772C144.05 55.9873 144.564 56.1731 145.178 56.1731C146.1 56.1731 146.776 55.6907 146.776 54.4307V53.8878H146.756C146.49 54.3493 145.947 54.7172 145.179 54.7172C143.95 54.7172 143.068 53.6725 143.068 52.3002C143.068 50.6197 144.164 49.6772 145.311 49.6772C146.172 49.6772 146.634 50.1172 146.858 50.5268H146.878L146.91 49.7802H147.708C147.678 50.1272 147.667 50.5384 147.667 51.1316V54.0102H147.668ZM146.766 51.7357C146.766 51.5824 146.755 51.4492 146.715 51.3361C146.551 50.8033 146.121 50.3728 145.455 50.3728C144.595 50.3728 143.98 51.1 143.98 52.2484C143.98 53.2204 144.482 54.0304 145.444 54.0304C146.007 54.0304 146.509 53.6819 146.694 53.108C146.745 52.9547 146.766 52.7804 146.766 52.6271V51.7357Z" fill="#A7A9AC"/>
<path d="M162.999 53.5501C162.999 53.9792 163.02 54.3997 163.071 54.7367H162.262L162.189 54.1124H162.158C161.882 54.502 161.349 54.8504 160.643 54.8504C159.638 54.8504 159.128 54.1434 159.128 53.4256C159.128 52.2275 160.193 51.5723 162.109 51.5816V51.4801C162.109 51.0805 161.996 50.3324 160.982 50.3425C160.511 50.3425 160.029 50.4764 159.681 50.7126L159.476 50.1078C159.885 49.8522 160.49 49.6772 161.114 49.6772C162.631 49.6772 163 50.7126 163 51.6954V53.5501H162.999ZM162.128 52.2088C161.145 52.1879 160.028 52.3607 160.028 53.324C160.028 53.9188 160.418 54.1844 160.868 54.1844C161.524 54.1844 161.943 53.7755 162.087 53.355C162.118 53.252 162.128 53.1498 162.128 53.0684V52.2088Z" fill="#A7A9AC"/>
<path d="M172.79 54.0102C172.79 55.1579 172.554 55.8455 172.083 56.284C171.592 56.7253 170.896 56.8787 170.27 56.8787C169.676 56.8787 169.02 56.7354 168.621 56.4697L168.846 55.772C169.173 55.9873 169.686 56.1731 170.301 56.1731C171.222 56.1731 171.899 55.6907 171.899 54.4307V53.8878H171.879C171.612 54.3493 171.07 54.7172 170.302 54.7172C169.072 54.7172 168.191 53.6725 168.191 52.3002C168.191 50.6197 169.287 49.6772 170.434 49.6772C171.294 49.6772 171.756 50.1172 171.981 50.5268H172.001L172.031 49.7802H172.831C172.8 50.1272 172.789 50.5384 172.789 51.1316V54.0102H172.79ZM171.889 51.7357C171.889 51.5824 171.878 51.4492 171.838 51.3361C171.674 50.8033 171.243 50.3728 170.578 50.3728C169.717 50.3728 169.102 51.1 169.102 52.2484C169.102 53.2204 169.604 54.0304 170.567 54.0304C171.131 54.0304 171.633 53.6819 171.816 53.108C171.868 52.9547 171.889 52.7804 171.889 52.6271V51.7357Z" fill="#A7A9AC"/>
<path d="M178.874 52.4226C178.894 53.6416 179.663 54.1441 180.573 54.1441C181.219 54.1441 181.618 54.0318 181.946 53.8885L182.11 54.5337C181.793 54.6769 181.239 54.8512 180.45 54.8512C178.925 54.8512 178.012 53.8374 178.012 52.3413C178.012 50.8451 178.894 49.678 180.337 49.678C181.967 49.678 182.386 51.0913 182.386 52.0036C182.386 52.1879 182.376 52.3197 182.355 52.4226H178.874ZM181.515 51.7768C181.526 51.2145 181.28 50.3224 180.266 50.3224C179.344 50.3224 178.955 51.1518 178.883 51.7768H181.515Z" fill="#A7A9AC"/>
<path d="M187.599 51.1216C187.599 50.5981 187.588 50.1892 187.557 49.7802H188.356L188.407 50.5989H188.427C188.673 50.1388 189.246 49.678 190.066 49.678C190.752 49.678 191.817 50.0869 191.817 51.789V54.7381H190.917V51.8805C190.917 51.082 190.62 50.4167 189.77 50.4167C189.184 50.4167 188.724 50.8357 188.56 51.3376C188.519 51.4499 188.499 51.6033 188.499 51.7581V54.7381H187.597V51.1216H187.599Z" fill="#A7A9AC"/>
<path d="M200.913 54.5639C200.678 54.6762 200.154 54.8504 199.489 54.8504C197.993 54.8504 197.02 53.8367 197.02 52.3189C197.02 50.7932 198.064 49.6765 199.684 49.6765C200.216 49.6765 200.688 49.809 200.932 49.9422L200.728 50.6284C200.513 50.516 200.175 50.3936 199.684 50.3936C198.546 50.3936 197.931 51.2447 197.931 52.2685C197.931 53.4162 198.669 54.1232 199.653 54.1232C200.165 54.1232 200.503 53.9994 200.758 53.8871L200.913 54.5639Z" fill="#A7A9AC"/>
<path d="M206.576 49.78L207.651 52.709C207.775 53.0366 207.897 53.4261 207.98 53.7227H208C208.092 53.4261 208.194 53.0474 208.317 52.6874L209.301 49.7793H210.253L208.9 53.3131C208.255 55.013 207.815 55.8741 207.201 56.417C206.75 56.7964 206.319 56.9498 206.094 56.9908L205.869 56.2427C206.094 56.1722 206.391 56.0275 206.658 55.8028C206.904 55.6084 207.201 55.2599 207.416 54.7984C207.458 54.707 207.489 54.635 207.489 54.5831C207.489 54.5327 207.468 54.4607 207.416 54.3484L205.593 49.7793H206.576V49.78Z" fill="#A7A9AC"/>
</svg>
