<svg width="335" height="70" viewBox="0 0 335 70" fill="none" xmlns="http://www.w3.org/2000/svg">
<path d="M17.3215 28.1416C18.1937 26.2364 19.574 24.5556 21.4152 23.3451C23.2563 22.1369 25.306 21.5635 27.3338 21.5635H38.9234L29.2314 44.2852C28.8109 45.2702 28.8639 46.4519 29.471 47.4225C30.0771 48.3943 31.0921 48.9234 32.1279 48.9234H53.8772L47.7639 60.7443C46.9758 62.2692 45.7994 63.5985 44.2682 64.5511C42.7381 65.5025 41.0548 65.9512 39.3934 65.9512H0L17.3215 28.1416Z" fill="#F02D2D"/>
<path d="M3.91418 0.000409361L57.955 0.000409361C112.369 -0.193947 103.424 68.8854 52.3636 65.9497C63.5914 45.5026 75.0046 16.3 52.5502 16.883H17.7032C10.1554 15.5453 5.32788 10.2533 3.91418 0.000409361Z" fill="#F02D2D"/>
<path d="M109.832 20.0847C109.832 17.99 111.23 16.5791 113.198 16.5791H120.456C130.249 16.5791 135.845 23.1344 135.845 33.241C135.845 42.8028 129.899 48.9935 120.892 48.9935H113.285C111.842 48.9935 109.831 48.1728 109.831 45.579V20.0847H109.832ZM116.39 42.7105H120.806C126.446 42.7105 129.026 38.3854 129.026 32.9207C129.026 27.096 126.402 22.8609 120.368 22.8609H116.389V42.7105H116.39Z" fill="#434343"/>
<path d="M138.401 19.8557C138.401 17.5798 139.799 16.3057 141.68 16.3057C143.559 16.3057 144.959 17.581 144.959 19.8557V45.7147C144.959 47.9918 143.56 49.2659 141.68 49.2659C139.799 49.2659 138.401 47.9918 138.401 45.7147V19.8557Z" fill="#434343"/>
<path d="M173.705 29.7811C176.459 29.7811 177.552 31.2388 177.552 34.1518C177.552 42.9386 172.042 49.5407 163.298 49.5407C154.423 49.5407 148.257 42.2104 148.257 32.7853C148.257 23.317 154.379 16.0322 163.298 16.0322C169.899 16.0322 175.322 19.2643 175.322 22.452C175.322 24.4099 174.142 25.6385 172.61 25.6385C169.638 25.6385 169.026 22.3152 163.298 22.3152C157.833 22.3152 155.079 27.2773 155.079 32.7853C155.079 38.3412 157.745 43.2577 163.298 43.2577C166.752 43.2577 170.731 41.2542 170.731 36.0641H166.271C164.48 36.0641 163.211 34.7444 163.211 32.8789C163.211 30.9653 164.61 29.7823 166.271 29.7823H173.705V29.7811Z" fill="#434343"/>
<path d="M180.26 19.8557C180.26 17.5798 181.66 16.3057 183.54 16.3057C185.419 16.3057 186.819 17.581 186.819 19.8557V45.7147C186.819 47.9918 185.419 49.2659 183.54 49.2659C181.66 49.2659 180.26 47.9918 180.26 45.7147V19.8557Z" fill="#434343"/>
<path d="M196.59 22.8611H191.824C189.727 22.8611 188.851 21.2679 188.851 19.719C188.851 18.1258 189.943 16.5781 191.824 16.5781H207.914C209.794 16.5781 210.887 18.1258 210.887 19.719C210.887 21.2679 210.012 22.8611 207.914 22.8611H203.147V45.7148C203.147 47.9919 201.748 49.266 199.868 49.266C197.989 49.266 196.589 47.9919 196.589 45.7148V22.8611H196.59Z" fill="#434343"/>
<path d="M215.52 19.8102C216.264 17.7154 217.968 16.0322 220.198 16.0322C222.515 16.0322 224.134 17.6255 224.877 19.8102L233.447 44.5762C233.71 45.3057 233.797 45.9439 233.797 46.2607C233.797 48.0363 232.397 49.266 230.78 49.266C228.944 49.266 228.026 48.2642 227.588 46.8989L226.277 42.6195H214.122L212.809 46.8521C212.372 48.2642 211.454 49.266 209.662 49.266C207.913 49.266 206.426 47.9007 206.426 46.0795C206.426 45.3525 206.644 44.8054 206.732 44.5762L215.52 19.8102ZM216.001 36.3377H224.308L220.242 23.1346H220.154L216.001 36.3377Z" fill="#434343"/>
<path d="M235.848 19.8557C235.848 17.5798 237.248 16.3057 239.128 16.3057C241.007 16.3057 242.407 17.581 242.407 19.8557V42.7106H250.189C252.421 42.7106 253.424 44.4394 253.336 45.9882C253.293 47.4903 252.112 48.9923 250.189 48.9923H239.259C237.118 48.9923 235.849 47.5359 235.849 45.2588V19.8557H235.848Z" fill="#434343"/>
<path d="M265.594 19.8557C265.594 17.5798 266.994 16.3057 268.875 16.3057C270.755 16.3057 272.154 17.581 272.154 19.8557V42.7106H279.937C282.167 42.7106 283.172 44.4394 283.084 45.9882C283.04 47.4903 281.859 48.9923 279.937 48.9923H269.007C266.865 48.9923 265.596 47.5359 265.596 45.2588V19.8557H265.594Z" fill="#434343"/>
<path d="M293.207 19.8102C293.95 17.7154 295.655 16.0322 297.885 16.0322C300.203 16.0322 301.82 17.6255 302.564 19.8102L311.133 44.5762C311.395 45.3057 311.482 45.9439 311.482 46.2607C311.482 48.0363 310.084 49.266 308.466 49.266C306.63 49.266 305.711 48.2642 305.273 46.8989L303.962 42.6195H291.807L290.496 46.8521C290.058 48.2642 289.14 49.266 287.348 49.266C285.598 49.266 284.112 47.9007 284.112 46.0795C284.112 45.3525 284.331 44.8054 284.418 44.5762L293.207 19.8102ZM293.687 36.3377H301.994L297.928 23.1346H297.842L293.687 36.3377Z" fill="#434343"/>
<path d="M312.351 19.9923C312.351 17.8088 313.793 16.5791 315.805 16.5791H324.199C328.746 16.5791 332.419 19.7656 332.419 24.5909C332.419 27.7774 331.15 29.9165 328.353 31.283V31.3742C332.07 31.9201 335 35.1509 335 39.1137C335 45.5334 330.89 48.9922 324.856 48.9922H315.85C313.839 48.9922 312.352 47.6713 312.352 45.5322V19.9923H312.351ZM318.91 29.4162H322.32C324.462 29.4162 325.862 28.0953 325.862 25.8194C325.862 23.6803 324.244 22.5874 322.32 22.5874H318.91V29.4162ZM318.91 42.9828H324.069C326.431 42.9828 328.18 41.5719 328.18 39.0225C328.18 36.8834 326.605 35.4257 323.545 35.4257H318.911V42.9828H318.91Z" fill="#434343"/>
<path d="M111.158 60.2184C111.158 59.3474 111.126 58.666 111.092 57.9833H112.355L112.421 59.3318H112.47C112.913 58.5472 113.65 57.813 114.979 57.813C116.044 57.813 116.863 58.4944 117.208 59.4674H117.24C117.486 58.9899 117.815 58.6492 118.142 58.3925C118.618 58.0169 119.126 57.813 119.88 57.813C120.947 57.813 122.503 58.5304 122.503 61.3966V66.2447H121.093V61.5849C121.093 59.9797 120.519 59.0403 119.372 59.0403C118.535 59.0403 117.913 59.6726 117.65 60.39C117.585 60.612 117.535 60.8675 117.535 61.1398V66.2447H116.126V61.2946C116.126 59.9797 115.57 59.0403 114.469 59.0403C113.584 59.0403 112.913 59.7925 112.683 60.5436C112.602 60.7487 112.568 61.0199 112.568 61.2766V66.2447H111.158V60.2184Z" fill="#434343"/>
<path d="M136.956 64.2651C136.956 64.9814 136.988 65.682 137.071 66.2447H135.776L135.661 65.2033H135.612C135.17 65.8512 134.317 66.4319 133.186 66.4319C131.579 66.4319 130.761 65.2549 130.761 64.0588C130.761 62.0624 132.465 60.9695 135.531 60.9851V60.8171C135.531 60.1513 135.35 58.9047 133.728 58.9215C132.973 58.9215 132.203 59.1447 131.646 59.5358L131.317 58.5304C131.973 58.1045 132.941 57.813 133.94 57.813C136.366 57.813 136.956 59.5358 136.956 61.1758V64.2651ZM135.562 62.03C133.988 61.9952 132.201 62.2844 132.201 63.8896C132.201 64.8794 132.824 65.3233 133.545 65.3233C134.595 65.3233 135.267 64.6418 135.496 63.9412C135.544 63.7708 135.562 63.5993 135.562 63.4637V62.03Z" fill="#434343"/>
<path d="M145.837 60.5604C145.837 59.5874 145.819 58.7512 145.771 57.9833H147.034L147.099 59.6222H147.149C147.508 58.5112 148.393 57.813 149.361 57.813C149.508 57.813 149.624 57.8298 149.755 57.8466V59.2635C149.608 59.2287 149.46 59.2287 149.263 59.2287C148.247 59.2287 147.526 60.0145 147.329 61.141C147.296 61.3462 147.28 61.6029 147.28 61.8417V66.2459H145.838V60.5604H145.837Z" fill="#434343"/>
<path d="M159.243 61.7733H159.275C159.472 61.483 159.734 61.1242 159.964 60.8339L162.309 57.9833H164.03L160.982 61.381L164.473 66.2459H162.702L159.98 62.2844L159.243 63.1386V66.2459H157.817V54.125H159.243V61.7733Z" fill="#434343"/>
<path d="M172.863 62.3873C172.894 64.4185 174.124 65.2559 175.584 65.2559C176.616 65.2559 177.255 65.0687 177.779 64.83L178.043 65.9049C177.534 66.1437 176.649 66.4328 175.386 66.4328C172.943 66.4328 171.485 64.7436 171.485 62.2518C171.485 59.7587 172.894 57.814 175.205 57.814C177.812 57.814 178.484 60.169 178.484 61.6879C178.484 61.995 178.468 62.217 178.435 62.3873H172.863ZM177.091 61.3112C177.108 60.373 176.714 58.8865 175.093 58.8865C173.617 58.8865 172.994 60.2686 172.879 61.3112H177.091Z" fill="#434343"/>
<path d="M188.563 56.0039V57.9823H190.628V59.1244H188.563V63.5814C188.563 64.6048 188.842 65.1867 189.644 65.1867C190.037 65.1867 190.267 65.1531 190.482 65.0835L190.547 66.2268C190.269 66.33 189.826 66.432 189.27 66.432C188.597 66.432 188.055 66.1932 187.711 65.8009C187.317 65.339 187.153 64.6048 187.153 63.6318V59.1256H185.924V57.9835H187.153V56.4478L188.563 56.0039Z" fill="#434343"/>
<path d="M200.411 55.6621C200.411 56.1743 200.067 56.5846 199.494 56.5846C198.969 56.5846 198.624 56.1743 198.624 55.6621C198.624 55.1486 198.985 54.7227 199.526 54.7227C200.052 54.7227 200.411 55.133 200.411 55.6621ZM198.807 66.2449V57.9823H200.249V66.2449H198.807Z" fill="#434343"/>
<path d="M209.195 60.2182C209.195 59.3472 209.179 58.6658 209.129 57.9831H210.407L210.49 59.3484H210.522C210.916 58.5818 211.834 57.814 213.145 57.814C214.243 57.814 215.948 58.4954 215.948 61.3304V66.2469H214.505V61.4839C214.505 60.1534 214.031 59.0425 212.669 59.0425C211.734 59.0425 210.997 59.7431 210.734 60.5781C210.669 60.7677 210.636 61.022 210.636 61.2788V66.2469H209.193V60.2182H209.195Z" fill="#434343"/>
<path d="M231.634 65.0342C231.634 66.9453 231.258 68.0899 230.504 68.8229C229.716 69.556 228.602 69.8127 227.602 69.8127C226.65 69.8127 225.602 69.574 224.961 69.1301L225.322 67.9687C225.846 68.3274 226.667 68.6358 227.65 68.6358C229.125 68.6358 230.208 67.8331 230.208 65.7324V64.829H230.176C229.749 65.5968 228.881 66.2099 227.651 66.2099C225.685 66.2099 224.274 64.4691 224.274 62.1824C224.274 59.3834 226.028 57.813 227.863 57.813C229.241 57.813 229.98 58.546 230.338 59.2287H230.37L230.421 57.9833H231.699C231.651 58.5628 231.633 59.2467 231.633 60.2364V65.0342H231.634ZM230.192 61.243C230.192 60.9863 230.175 60.7667 230.11 60.576C229.847 59.6894 229.16 58.9719 228.094 58.9719C226.717 58.9719 225.733 60.1837 225.733 62.096C225.733 63.7169 226.536 65.0666 228.077 65.0666C228.978 65.0666 229.781 64.4859 230.077 63.5297C230.158 63.273 230.192 62.9838 230.192 62.7283V61.243Z" fill="#434343"/>
<path d="M256.168 64.2651C256.168 64.9814 256.201 65.682 256.284 66.2447H254.989L254.872 65.2033H254.823C254.38 65.8512 253.528 66.4319 252.397 66.4319C250.79 66.4319 249.973 65.2549 249.973 64.0588C249.973 62.0624 251.677 60.9695 254.743 60.9851V60.8171C254.743 60.1513 254.563 58.9047 252.94 58.9215C252.187 58.9215 251.416 59.1447 250.858 59.5358L250.531 58.5304C251.185 58.1045 252.153 57.813 253.152 57.813C255.578 57.813 256.17 59.5358 256.17 61.1758V64.2651H256.168ZM254.774 62.03C253.2 61.9952 251.413 62.2844 251.413 63.8896C251.413 64.8794 252.038 65.3233 252.758 65.3233C253.808 65.3233 254.478 64.6418 254.709 63.9412C254.758 63.7708 254.774 63.5993 254.774 63.4637V62.03Z" fill="#434343"/>
<path d="M271.835 65.0342C271.835 66.9453 271.458 68.0899 270.704 68.8229C269.919 69.556 268.804 69.8127 267.802 69.8127C266.851 69.8127 265.803 69.574 265.164 69.1301L265.524 67.9687C266.047 68.3274 266.868 68.6358 267.853 68.6358C269.326 68.6358 270.409 67.8331 270.409 65.7324V64.829H270.377C269.951 65.5968 269.083 66.2099 267.854 66.2099C265.886 66.2099 264.476 64.4691 264.476 62.1824C264.476 59.3834 266.229 57.813 268.065 57.813C269.442 57.813 270.18 58.546 270.541 59.2287H270.573L270.621 57.9833H271.9C271.851 58.5628 271.833 59.2467 271.833 60.2364V65.0342H271.835ZM270.393 61.243C270.393 60.9863 270.376 60.7667 270.311 60.576C270.049 59.6894 269.36 58.9719 268.295 58.9719C266.918 58.9719 265.934 60.1837 265.934 62.096C265.934 63.7169 266.737 65.0666 268.278 65.0666C269.18 65.0666 269.983 64.4859 270.277 63.5297C270.36 63.273 270.393 62.9838 270.393 62.7283V61.243Z" fill="#434343"/>
<path d="M281.57 62.3873C281.602 64.4185 282.833 65.2559 284.289 65.2559C285.323 65.2559 285.962 65.0687 286.486 64.83L286.749 65.9049C286.242 66.1437 285.356 66.4328 284.093 66.4328C281.652 66.4328 280.191 64.7436 280.191 62.2518C280.191 59.7587 281.602 57.814 283.912 57.814C286.52 57.814 287.192 60.169 287.192 61.6879C287.192 61.995 287.174 62.217 287.142 62.3873H281.57ZM285.797 61.3112C285.815 60.373 285.421 58.8865 283.798 58.8865C282.323 58.8865 281.7 60.2686 281.585 61.3112H285.797Z" fill="#434343"/>
<path d="M295.533 60.2182C295.533 59.3472 295.516 58.6658 295.466 57.9831H296.744L296.826 59.3484H296.858C297.252 58.5818 298.169 57.814 299.481 57.814C300.579 57.814 302.284 58.4954 302.284 61.3304V66.2469H300.842V61.4839C300.842 60.1534 300.367 59.0425 299.007 59.0425C298.07 59.0425 297.333 59.7431 297.071 60.5781C297.005 60.7677 296.973 61.022 296.973 61.2788V66.2469H295.531V60.2182H295.533Z" fill="#434343"/>
<path d="M316.838 65.9541C316.462 66.1424 315.625 66.4316 314.56 66.4316C312.166 66.4316 310.608 64.7424 310.608 62.2157C310.608 59.6723 312.28 57.8115 314.871 57.8115C315.724 57.8115 316.478 58.0347 316.869 58.2542L316.543 59.3976C316.198 59.2104 315.657 59.0064 314.871 59.0064C313.051 59.0064 312.067 60.4233 312.067 62.1306C312.067 64.0417 313.248 65.2199 314.822 65.2199C315.642 65.2199 316.182 65.0135 316.591 64.8275L316.838 65.9541Z" fill="#434343"/>
<path d="M325.9 57.9831L327.62 62.866C327.819 63.4107 328.014 64.0598 328.146 64.5541H328.178C328.326 64.0598 328.489 63.4287 328.685 62.8301L330.26 57.9819H331.783L329.619 63.8714C328.587 66.704 327.882 68.1389 326.899 69.0435C326.178 69.6745 325.488 69.9313 325.128 69.9996L324.768 68.7531C325.128 68.6344 325.604 68.3944 326.032 68.0201C326.424 67.695 326.9 67.1155 327.244 66.3477C327.311 66.1929 327.36 66.0729 327.36 65.9889C327.36 65.9038 327.328 65.7826 327.244 65.5954L324.326 57.9819H325.9V57.9831Z" fill="#434343"/>
</svg>
